<svg width="22" height="22" viewBox="0 0 22 22" fill="none" xmlns="http://www.w3.org/2000/svg">
<g clip-path="url(#clip0_44_701)">
<path d="M10.3861 0.225277C9.89179 0.410639 9.53342 0.736053 9.29863 1.21388L9.16682 1.48574L9.15446 5.16004L9.14622 8.83846L5.4678 8.84669L1.79351 8.85905L1.50516 8.9991C1.1262 9.18447 0.800787 9.50988 0.615424 9.88884C0.479491 10.1689 0.475372 10.1895 0.475372 10.6921C0.475372 11.1946 0.479491 11.2152 0.615424 11.4953C0.800787 11.8743 1.1262 12.1997 1.50516 12.3851L1.79351 12.5251L5.4678 12.5375L9.14622 12.5457L9.15446 16.2241L9.16682 19.8984L9.30687 20.1868C9.49223 20.5657 9.81764 20.8911 10.1966 21.0765C10.4767 21.2124 10.4973 21.2166 10.9998 21.2166C11.5024 21.2166 11.523 21.2124 11.8031 21.0765C12.182 20.8911 12.5075 20.5657 12.6928 20.1868L12.8329 19.8984L12.8452 16.2241L12.8535 12.5457L16.5319 12.5375L20.2062 12.5251L20.4945 12.3851C20.8735 12.1997 21.1989 11.8743 21.3843 11.4953C21.5202 11.2152 21.5243 11.1946 21.5243 10.6921C21.5243 10.1895 21.5202 10.1689 21.3843 9.88884C21.1989 9.50988 20.8735 9.18447 20.4945 8.9991L20.2062 8.85905L16.5319 8.84669L12.8535 8.83846L12.8452 5.16004L12.8329 1.48574L12.6928 1.1974C12.5075 0.818438 12.182 0.493023 11.8031 0.311779C11.5353 0.179966 11.4777 0.167608 11.0616 0.15937C10.6909 0.147013 10.5673 0.15937 10.3861 0.225277Z" fill="white"/>
</g>
<defs>
<clipPath id="clip0_44_701">
<rect width="21.0901" height="21.0901" fill="white" transform="translate(0.454773 0.146973)"/>
</clipPath>
</defs>
</svg>
