<svg width="38" height="38" viewBox="0 0 38 38" fill="none" xmlns="http://www.w3.org/2000/svg">
<path d="M10.635 23.753C12.6275 22.0073 14.6376 20.3499 16.8065 18.8511C22.6253 14.8308 28.9731 12.1506 36.0262 11.3571C36.5552 11.3042 37.2782 10.9692 37.5955 11.4453C37.9482 11.9919 37.2429 12.4151 36.9255 12.8207C34.3864 16.2414 31.7944 19.6093 29.5903 23.2593C29.1494 23.9999 29.0436 24.6346 29.2905 25.4634C30.2603 28.6549 31.0538 31.917 31.6709 35.1967C31.7591 35.6904 31.8296 36.1841 31.8296 36.6778C31.8296 37.4713 31.5299 37.63 30.8598 37.2244C29.9782 36.6955 29.1318 36.1136 28.2678 35.567C24.9352 33.4158 21.585 31.3175 18.0937 29.4484C17.4942 29.131 17.6352 28.8841 17.8997 28.4609C20.2978 24.8639 23.3835 21.9015 26.6632 19.1156C27.4038 18.4984 28.162 17.8989 28.8849 17.2465C26.769 18.181 24.8118 19.3624 22.9074 20.6496C17.2649 24.4583 12.5217 29.2368 8.07824 34.3503C7.3024 35.2319 6.54419 36.1312 5.76835 37.0129C5.57439 37.2244 5.41569 37.63 5.01014 37.4537C4.67511 37.3126 4.78091 36.9423 4.78091 36.6602C4.76328 34.5972 5.1512 32.5694 5.52149 30.5592C7.16134 21.7076 10.2294 13.4378 15.3782 6.0144C16.5773 4.30402 17.8644 2.66417 19.4161 1.25355C20.6328 0.142681 20.9678 0.230843 21.5673 1.74726C22.3784 3.82793 22.8016 6.0144 23.3306 8.18323C23.5246 8.97671 23.6304 9.80545 23.8772 10.5813C24.0359 11.1279 23.842 11.3395 23.4188 11.604C18.6227 14.4781 14.5847 18.181 11.3227 22.7303C11.0758 23.1006 10.8642 23.4356 10.635 23.753Z" fill="#673FFF"/>
<path d="M6.56185 16.8938C6.08576 18.6923 5.62731 20.3498 5.22175 22.0249C5.09832 22.5187 4.922 22.4305 4.56934 22.3071C3.22925 21.7957 1.88916 21.2844 0.53143 20.8259C-0.191514 20.5791 -0.12098 20.3146 0.408004 19.9266C2.24181 18.5689 4.26958 17.6167 6.56185 16.8938Z" fill="#673FFF"/>
</svg>
