<svg width="14" height="14" viewBox="0 0 14 14" fill="none" xmlns="http://www.w3.org/2000/svg">
<path d="M8.75429 0.285122C8.35703 0.323793 7.83672 0.464418 7.47109 0.633169C6.87344 0.914419 6.75039 1.0234 4.51445 3.25231C3.34726 4.41247 2.36992 5.41442 2.3418 5.47418C2.2293 5.71676 2.31015 6.04723 2.52461 6.20543C2.62656 6.27926 2.89726 6.31793 3.05195 6.28278C3.11875 6.2652 3.82539 5.58317 5.27734 4.13825C7.59765 1.82848 7.63984 1.78981 8.24101 1.58239C9.57343 1.12536 11.0324 1.73356 11.6547 3.00973C11.9852 3.68473 12.0273 4.41598 11.7848 5.12614C11.5703 5.7484 11.6336 5.67809 8.2164 9.10231C6.36015 10.9656 5.00312 12.298 4.88008 12.3789C4.58125 12.5793 4.32461 12.6672 3.95898 12.6847C3.39648 12.7164 2.9289 12.5371 2.53515 12.1363C2.16601 11.7601 2.00078 11.3558 2.0043 10.8144C2.0043 10.4629 2.09922 10.1465 2.28555 9.86168C2.37344 9.72809 3.49492 8.58551 5.4039 6.67653C8.37461 3.71286 8.38867 3.69879 8.59258 3.64254C9.26758 3.44918 9.91797 4.09958 9.72461 4.77458C9.66836 4.97497 9.64375 5.00309 7.73828 6.91208C5.67812 8.98278 5.70273 8.95114 5.74492 9.26051C5.76601 9.42575 5.8539 9.55231 6.01562 9.66481C6.16679 9.76676 6.44453 9.77028 6.5957 9.67536C6.65547 9.63668 7.55898 8.75426 8.60664 7.71364C10.5016 5.82926 10.5086 5.82223 10.6527 5.5234C10.8039 5.21051 10.9375 4.6902 10.9375 4.3984C10.9375 3.84293 10.5191 3.13981 9.98125 2.78825C9.6332 2.56325 9.26758 2.45426 8.8457 2.45426C8.61015 2.45426 8.42383 2.47184 8.2832 2.51403C7.7664 2.6652 7.87539 2.56676 4.59883 5.83629C2.91836 7.50973 1.47695 8.97575 1.39258 9.09176C0.520701 10.3082 0.68242 12.0168 1.76875 13.0328C2.40156 13.6234 3.11523 13.8836 3.99414 13.8449C4.64453 13.8168 5.17187 13.6304 5.66758 13.2578C5.79062 13.1629 7.32695 11.6511 9.07773 9.89333C12.3156 6.64489 12.4141 6.53942 12.6742 6.02614C13.4477 4.48981 13.1523 2.63356 11.943 1.42418C11.0992 0.58395 9.96367 0.176138 8.75429 0.285122Z" fill="#B7B7B7"/>
</svg>
