<svg width="32" height="28" viewBox="0 0 32 28" fill="none" xmlns="http://www.w3.org/2000/svg">
<path d="M11.4512 0.999983C11.1324 1.12665 10.8269 1.61332 10.0234 3.31332L9.2 5.05998L5.97265 5.07998C2.80507 5.09998 2.74531 5.09998 2.32031 5.25332C1.35078 5.59998 0.547261 6.36665 0.268355 7.21998C0.128902 7.63998 0.128902 7.65332 0.142183 16.2L0.162105 24.7667L0.374605 25.2133C0.753121 26.0133 1.51015 26.6667 2.37343 26.9333C2.79179 27.0667 3.01757 27.0667 16 27.0667C28.9824 27.0667 29.2082 27.0667 29.6266 26.9333C30.4898 26.6667 31.2469 26.0133 31.6254 25.2133L31.8379 24.7667L31.8578 16.2C31.8711 7.65332 31.8711 7.63998 31.7316 7.21998C31.4328 6.31998 30.709 5.62665 29.6797 5.25332C29.2613 5.10665 29.175 5.09998 26.273 5.06665L23.298 5.03332L22.468 3.29998C21.6512 1.58665 21.4254 1.23332 21.0336 1.02665C20.8809 0.94665 20.0906 0.933317 16.2191 0.939983C13.6691 0.939983 11.5242 0.96665 11.4512 0.999983ZM19.2207 3.13998C19.6988 3.27332 19.9047 3.57332 20.5754 5.13332C21.2328 6.65332 21.452 7.03332 21.7973 7.27998L22.0098 7.43332L25.3301 7.46665C28.5309 7.49998 28.657 7.50665 28.916 7.63998C29.0621 7.71332 29.248 7.87998 29.3344 7.99998L29.4805 8.21998V16.0933C29.4805 23.7067 29.4738 23.9733 29.3543 24.1733C29.2812 24.2867 29.0953 24.4467 28.9359 24.5267L28.6437 24.6667H16H3.35625L3.06406 24.5267C2.90468 24.4467 2.71875 24.2867 2.6457 24.1733C2.52617 23.9733 2.51953 23.7067 2.51953 16.0933V8.21998L2.67226 7.99998C2.75195 7.87998 2.93789 7.71332 3.08398 7.63998C3.34296 7.50665 3.4625 7.49998 6.93554 7.46665C10.973 7.42665 10.7008 7.46665 11.0793 6.90665C11.1922 6.74665 11.5773 5.93332 11.9426 5.09332C12.6531 3.45998 12.7793 3.27332 13.2707 3.14665C13.616 3.05332 18.8887 3.04665 19.2207 3.13998Z" fill="white"/>
<path d="M14.6719 9.32672C13.098 9.66672 11.677 10.5867 10.7672 11.8667C10.4816 12.2534 10.4551 12.3267 10.4551 12.6801C10.4551 13.1067 10.5812 13.3267 10.9531 13.5801C11.2188 13.7667 11.7234 13.7867 12.0555 13.6267C12.1816 13.5667 12.3742 13.3867 12.4805 13.2334C12.8059 12.7667 13.5695 12.1067 14.0875 11.8467C15.7012 11.0467 17.5805 11.3201 18.8887 12.5467C19.4598 13.0801 19.8582 13.6467 19.7188 13.7334C19.6656 13.7667 19.3336 13.9067 18.975 14.0467C18.6164 14.1867 18.3242 14.3201 18.3242 14.3401C18.3242 14.3934 22.1027 16.5601 22.1293 16.5267C22.1691 16.4734 23.3711 12.4334 23.3711 12.3534C23.3711 12.3067 23.0723 12.4001 22.6273 12.5801C21.9367 12.8601 21.877 12.8734 21.8105 12.7601C20.4824 10.4401 18.4305 9.19339 15.9668 9.20672C15.5285 9.20672 15.0105 9.26005 14.6719 9.32672Z" fill="white"/>
<path d="M9.69804 15.0799C9.66483 15.1999 9.39257 16.1066 9.09374 17.0866C8.80155 18.0666 8.54257 18.9132 8.52265 18.9666C8.46288 19.1199 8.60897 19.0865 9.34608 18.7932C9.7246 18.6399 10.0367 18.5266 10.05 18.5399C10.0566 18.5532 10.1695 18.7399 10.2891 18.9599C10.6277 19.5599 11.2387 20.2866 11.7832 20.7266C12.673 21.4466 13.5164 21.8399 14.6387 22.0732C15.4887 22.2532 16.7437 22.2199 17.5605 21.9999C18.7625 21.6732 20.0242 20.8866 20.8144 19.9532C21.3125 19.3665 21.4453 19.1132 21.4453 18.7199C21.4453 18.0999 21.0137 17.6666 20.4027 17.6666C19.9246 17.6666 19.732 17.7799 19.3203 18.2999C19.1277 18.5399 18.809 18.8732 18.6031 19.0399C16.6906 20.6066 13.8285 20.2066 12.4074 18.1799C12.2281 17.9199 12.0887 17.7066 12.0953 17.6932C12.1086 17.6866 12.4273 17.5532 12.8125 17.3999C13.1976 17.2466 13.5297 17.0999 13.5562 17.0732C13.6027 17.0332 9.91054 14.8665 9.80429 14.8665C9.78436 14.8665 9.73788 14.9666 9.69804 15.0799Z" fill="white"/>
</svg>
