<svg width="16" height="16" viewBox="0 0 16 16" fill="none" xmlns="http://www.w3.org/2000/svg">
<path d="M0.781384 15.999C0.626848 15.9991 0.475776 15.9532 0.347275 15.8674C0.218774 15.7816 0.118619 15.6595 0.0594767 15.5168C0.000334656 15.374 -0.0151367 15.2169 0.0150196 15.0653C0.0451759 14.9138 0.119605 14.7745 0.228892 14.6653L14.6662 0.227875C14.8127 0.0813438 15.0114 -0.000976563 15.2187 -0.000976562C15.4259 -0.000976562 15.6246 0.0813438 15.7711 0.227875C15.9177 0.374406 16 0.573145 16 0.780371C16 0.987598 15.9177 1.18634 15.7711 1.33287L1.33388 15.7703C1.26139 15.8429 1.17526 15.9005 1.08045 15.9398C0.985637 15.979 0.884002 15.9992 0.781384 15.999Z" fill="#5C5F68"/>
<path d="M15.2186 15.999C15.116 15.9992 15.0144 15.979 14.9195 15.9398C14.8247 15.9005 14.7386 15.8429 14.6661 15.7703L0.228849 1.33287C0.0823196 1.18634 0 0.987598 0 0.780371C0 0.573145 0.0823196 0.374406 0.228849 0.227875C0.375379 0.0813438 0.574116 -0.000976562 0.781341 -0.000976562C0.988565 -0.000976562 1.1873 0.0813438 1.33383 0.227875L15.7711 14.6653C15.8804 14.7745 15.9548 14.9138 15.985 15.0653C16.0151 15.2169 15.9997 15.374 15.9405 15.5168C15.8814 15.6595 15.7812 15.7816 15.6527 15.8674C15.5242 15.9532 15.3732 15.9991 15.2186 15.999Z" fill="#5C5F68"/>
</svg>
