<svg width="20" height="34" viewBox="0 0 20 34" fill="none" xmlns="http://www.w3.org/2000/svg">
<path d="M4.44844 0.132812C4.33555 0.20586 4.19609 0.365234 4.12969 0.478123C3.95703 0.816795 0.0390625 16.6746 0.0390625 17.0465C0.0390625 17.4051 0.185156 17.6773 0.477344 17.8699C0.656641 17.9895 0.835937 17.9961 3.18008 17.9961C4.55469 17.9961 5.68359 18.0094 5.68359 18.016C5.68359 18.0293 4.86016 21.3496 3.85742 25.3871C2.73516 29.8895 2.03125 32.8578 2.03125 33.0504C2.03125 33.409 2.17734 33.6812 2.46953 33.8738C2.72852 34.0398 3.32617 34.0465 3.57187 33.8805C3.71797 33.7875 19.0777 14.6027 19.775 13.6531C20.1137 13.1883 20.0074 12.4844 19.5559 12.1656C19.4098 12.066 19.0578 12.0461 16.0363 12.0195L12.6762 11.9863L15.3258 6.64726C17.7629 1.71992 17.9687 1.28164 17.9687 0.969532C17.9687 0.591015 17.8293 0.32539 17.5305 0.126171C17.3445 0.00664139 17.0988 0 10.9961 0C4.78711 0 4.64766 0.00664139 4.44844 0.132812ZM13.7918 5.06016C12.9551 6.75352 11.7664 9.15742 11.1355 10.4059C10.0996 12.491 10 12.7102 10 13.0289C10 13.4074 10.1262 13.6664 10.4051 13.8656C10.5445 13.9652 10.8898 13.9852 13.6922 14.0117L16.8133 14.0449L11.0359 21.2965C7.85508 25.2809 5.24531 28.5348 5.23867 28.5281C5.22539 28.5148 5.84297 25.9781 6.61328 22.8836C7.43672 19.5566 8.00781 17.1328 8.00781 16.9469C8.00781 16.5949 7.86172 16.3227 7.56953 16.1301C7.39023 16.0105 7.21094 16.0039 4.86016 16.0039H2.35L2.38984 15.8512C2.40977 15.7715 3.19336 12.6172 4.12969 8.84531L5.83633 1.99219H10.5711H15.3059L13.7918 5.06016Z" fill="white"/>
</svg>
