<svg width="18" height="19" viewBox="0 0 18 19" fill="none" xmlns="http://www.w3.org/2000/svg">
<path d="M5.73748 16.121C5.71498 16.121 5.68498 16.136 5.66248 16.136C4.20748 15.416 3.02248 14.2235 2.29498 12.7685C2.29498 12.746 2.30998 12.716 2.30998 12.6935C3.22498 12.9635 4.16998 13.166 5.10748 13.3235C5.27248 14.2685 5.46748 15.206 5.73748 16.121Z" fill="white"/>
<path d="M15.705 12.776C14.9625 14.2685 13.725 15.476 12.2175 16.2035C12.5025 15.251 12.7425 14.291 12.9 13.3235C13.845 13.166 14.775 12.9635 15.69 12.6935C15.6825 12.7235 15.705 12.7535 15.705 12.776Z" fill="white"/>
<path d="M15.765 6.22096C14.82 5.93596 13.8675 5.70346 12.9 5.53846C12.7425 4.57096 12.51 3.61096 12.2175 2.67346C13.77 3.41596 15.0225 4.66846 15.765 6.22096Z" fill="white"/>
<path d="M5.73749 2.75602C5.46749 3.67102 5.27249 4.60102 5.11499 5.54602C4.14749 5.69602 3.18749 5.93602 2.23499 6.22102C2.96249 4.71352 4.16999 3.47602 5.66249 2.73352C5.68499 2.73352 5.71499 2.75602 5.73749 2.75602Z" fill="white"/>
<path d="M11.6175 5.38098C9.87751 5.18598 8.12251 5.18598 6.38251 5.38098C6.57001 4.35348 6.81001 3.32598 7.14751 2.33598C7.16251 2.27598 7.15501 2.23098 7.16251 2.17098C7.75501 2.02848 8.36251 1.93848 9.00001 1.93848C9.63001 1.93848 10.245 2.02848 10.83 2.17098C10.8375 2.23098 10.8375 2.27598 10.8525 2.33598C11.19 3.33348 11.43 4.35348 11.6175 5.38098Z" fill="white"/>
<path d="M4.9425 12.0559C3.9075 11.8684 2.8875 11.6284 1.8975 11.2909C1.8375 11.2759 1.7925 11.2834 1.7325 11.2759C1.59 10.6834 1.5 10.0759 1.5 9.43842C1.5 8.80842 1.59 8.19342 1.7325 7.60842C1.7925 7.60092 1.8375 7.60092 1.8975 7.58592C2.895 7.25592 3.9075 7.00842 4.9425 6.82092C4.755 8.56092 4.755 10.3159 4.9425 12.0559Z" fill="white"/>
<path d="M16.5 9.43842C16.5 10.0759 16.41 10.6834 16.2675 11.2759C16.2075 11.2834 16.1625 11.2759 16.1025 11.2909C15.105 11.6209 14.085 11.8684 13.0575 12.0559C13.2525 10.3159 13.2525 8.56092 13.0575 6.82092C14.085 7.00842 15.1125 7.24842 16.1025 7.58592C16.1625 7.60092 16.2075 7.60842 16.2675 7.60842C16.41 8.20092 16.5 8.80842 16.5 9.43842Z" fill="white"/>
<path d="M11.6175 13.496C11.43 14.531 11.19 15.551 10.8525 16.541C10.8375 16.601 10.8375 16.646 10.83 16.706C10.245 16.8485 9.63001 16.9385 9.00001 16.9385C8.36251 16.9385 7.75501 16.8485 7.16251 16.706C7.15501 16.646 7.16251 16.601 7.14751 16.541C6.81751 15.5435 6.57001 14.531 6.38251 13.496C7.25251 13.5935 8.12251 13.661 9.00001 13.661C9.87751 13.661 10.755 13.5935 11.6175 13.496Z" fill="white"/>
<path d="M11.8225 12.261C9.94668 12.4976 8.05332 12.4976 6.1775 12.261C5.94083 10.3852 5.94083 8.4918 6.1775 6.61598C8.05332 6.37931 9.94668 6.37931 11.8225 6.61598C12.0592 8.4918 12.0592 10.3852 11.8225 12.261Z" fill="white"/>
</svg>
