<svg width="24" height="24" viewBox="0 0 24 24" fill="none" xmlns="http://www.w3.org/2000/svg">
<path fill-rule="evenodd" clip-rule="evenodd" d="M23.0957 12.2614C23.0957 11.4459 23.0225 10.6618 22.8866 9.90912H12.0557V14.3575H18.2448C17.9782 15.795 17.1679 17.013 15.95 17.8284V20.7139H19.6666C21.8411 18.7118 23.0957 15.7637 23.0957 12.2614Z" fill="#4285F4"/>
<path fill-rule="evenodd" clip-rule="evenodd" d="M12.0556 23.4998C15.1606 23.4998 17.7637 22.47 19.6665 20.7137L15.9499 17.8282C14.9201 18.5182 13.6028 18.9259 12.0556 18.9259C9.06034 18.9259 6.52511 16.903 5.62079 14.1848H1.77875V17.1644C3.67102 20.9228 7.56011 23.4998 12.0556 23.4998Z" fill="#34A853"/>
<path fill-rule="evenodd" clip-rule="evenodd" d="M5.62089 14.1851C5.39089 13.4951 5.26021 12.758 5.26021 12.0001C5.26021 11.2421 5.39089 10.5051 5.62089 9.81506V6.83551H1.77885C0.999982 8.38801 0.555664 10.1444 0.555664 12.0001C0.555664 13.8557 0.999982 15.6121 1.77885 17.1646L5.62089 14.1851Z" fill="#FBBC05"/>
<path fill-rule="evenodd" clip-rule="evenodd" d="M12.0556 5.07386C13.744 5.07386 15.2599 5.65409 16.4517 6.79364L19.7501 3.49523C17.7585 1.63955 15.1553 0.5 12.0556 0.5C7.56011 0.5 3.67102 3.07705 1.77875 6.83545L5.62079 9.815C6.52511 7.09682 9.06034 5.07386 12.0556 5.07386Z" fill="#EA4335"/>
</svg>
