<svg width="22" height="22" viewBox="0 0 22 22" fill="none" xmlns="http://www.w3.org/2000/svg">
<path d="M15.9902 6.50879H15.9912L19.1807 7.03906C20.2869 7.22343 21.1423 7.74814 21.416 8.59961C21.6899 9.45167 21.2985 10.3733 20.502 11.165L20.5029 11.166L18.0225 13.6465C17.8875 13.7816 17.7605 14.0067 17.6836 14.2754C17.6067 14.544 17.5944 14.8042 17.6367 14.9932L18.3457 18.0596V18.0605C18.6354 19.3176 18.5097 20.4449 17.7295 21.0137C16.9987 21.5464 15.9741 21.385 14.9326 20.8213L14.7246 20.7031L11.7344 18.9326C11.5604 18.8295 11.2966 18.7627 11.0029 18.7627C10.7098 18.7627 10.4418 18.8294 10.2607 18.9346L7.27344 20.7031L7.27246 20.7021C6.1634 21.36 5.05112 21.5786 4.27148 21.0098C3.4915 20.4403 3.36103 19.3143 3.65137 18.0596L4.36133 14.9902C4.40292 14.8016 4.39091 14.5426 4.31445 14.2754C4.23754 14.0067 4.11054 13.7816 3.97559 13.6465L1.49512 11.166C0.703282 10.3741 0.313234 9.45188 0.584961 8.60059C0.856968 7.74878 1.70981 7.22356 2.81641 7.03906H2.81738L6.00684 6.50879C6.17353 6.48008 6.39302 6.38236 6.60449 6.22559C6.81677 6.06819 6.97459 5.88599 7.0498 5.73242L8.81152 2.20898L8.8125 2.20801C9.32863 1.18117 10.0919 0.5 10.998 0.5C11.9046 0.500182 12.6647 1.18203 13.1758 2.20898L14.9365 5.72852L14.9375 5.73242C15.0126 5.88581 15.17 6.06853 15.3828 6.22559C15.595 6.38214 15.8179 6.47985 15.9902 6.50879Z" fill="white" stroke="#673FFF" stroke-linecap="round" stroke-linejoin="round"/>
<path d="M7.01893 20.2725L10.0089 18.5025L12.7289 2.4325C11.7789 0.5225 10.2189 0.5225 9.25893 2.4325L7.49893 5.9525C7.25893 6.4425 6.61893 6.9125 6.08893 7.0025L2.89893 7.5325C0.858933 7.8725 0.388932 9.3525 1.84893 10.8125L4.32893 13.2925C4.74893 13.7125 4.97893 14.5225 4.84893 15.1025L4.13893 18.1725C3.57893 20.5925 4.87893 21.5425 7.01893 20.2725Z" fill="#673FFF"/>
</svg>
