<svg width="16" height="14" viewBox="0 0 16 14" fill="none" xmlns="http://www.w3.org/2000/svg">
<path d="M6.37612 8.2751C5.94487 7.8446 5.68237 7.2596 5.68237 6.60335C5.68237 5.2886 6.74137 4.22885 8.05537 4.22885C8.70562 4.22885 9.30412 4.4921 9.72787 4.9226" stroke="#ADA4A5" stroke-width="1.2" stroke-linecap="round" stroke-linejoin="round"/>
<path d="M10.3843 7.02417C10.2103 7.99167 9.44826 8.75517 8.48151 8.93067" stroke="#ADA4A5" stroke-width="1.2" stroke-linecap="round" stroke-linejoin="round"/>
<path d="M4.04661 10.6042C2.85636 9.66973 1.84836 8.30473 1.11786 6.60298C1.85586 4.89373 2.87061 3.52123 4.06836 2.57923C5.25861 1.63723 6.63186 1.12573 8.05536 1.12573C9.48711 1.12573 10.8596 1.64473 12.0574 2.59348" stroke="#ADA4A5" stroke-width="1.2" stroke-linecap="round" stroke-linejoin="round"/>
<path d="M13.6414 4.2431C14.1574 4.9286 14.6111 5.71985 14.9929 6.6026C13.5176 10.0204 10.9106 12.0791 8.05537 12.0791C7.40812 12.0791 6.76987 11.9741 6.15637 11.7694" stroke="#ADA4A5" stroke-width="1.2" stroke-linecap="round" stroke-linejoin="round"/>
<path d="M13.9709 0.687195L2.14038 12.5177" stroke="#ADA4A5" stroke-width="1.2" stroke-linecap="round" stroke-linejoin="round"/>
</svg>
