<svg width="134" height="38" viewBox="0 0 134 38" fill="none" xmlns="http://www.w3.org/2000/svg">
<path d="M10.635 23.753C12.6275 22.0073 14.6376 20.3499 16.8065 18.8511C22.6253 14.8308 28.9731 12.1506 36.0262 11.3571C36.5552 11.3042 37.2782 10.9692 37.5955 11.4453C37.9482 11.9919 37.2429 12.4151 36.9255 12.8207C34.3864 16.2414 31.7944 19.6093 29.5903 23.2593C29.1494 23.9999 29.0436 24.6346 29.2905 25.4634C30.2603 28.6549 31.0538 31.917 31.6709 35.1967C31.7591 35.6904 31.8296 36.1841 31.8296 36.6778C31.8296 37.4713 31.5299 37.63 30.8598 37.2244C29.9782 36.6955 29.1318 36.1136 28.2678 35.567C24.9352 33.4158 21.585 31.3175 18.0937 29.4484C17.4942 29.131 17.6352 28.8841 17.8997 28.4609C20.2978 24.8639 23.3835 21.9015 26.6632 19.1156C27.4038 18.4984 28.162 17.8989 28.8849 17.2465C26.769 18.181 24.8118 19.3624 22.9074 20.6496C17.2649 24.4583 12.5217 29.2368 8.07824 34.3503C7.3024 35.2319 6.54419 36.1312 5.76835 37.0129C5.57439 37.2244 5.41569 37.63 5.01014 37.4537C4.67511 37.3126 4.78091 36.9423 4.78091 36.6602C4.76328 34.5972 5.1512 32.5694 5.52149 30.5592C7.16134 21.7076 10.2294 13.4378 15.3782 6.0144C16.5773 4.30402 17.8644 2.66417 19.4161 1.25355C20.6328 0.142681 20.9678 0.230843 21.5673 1.74726C22.3784 3.82793 22.8016 6.0144 23.3306 8.18323C23.5246 8.97671 23.6304 9.80545 23.8772 10.5813C24.0359 11.1279 23.842 11.3395 23.4188 11.604C18.6227 14.4781 14.5847 18.181 11.3227 22.7303C11.0758 23.1006 10.8642 23.4356 10.635 23.753Z" fill="#673FFF"/>
<path d="M6.56185 16.8938C6.08576 18.6923 5.62731 20.3498 5.22175 22.0249C5.09832 22.5187 4.922 22.4305 4.56934 22.3071C3.22925 21.7957 1.88916 21.2844 0.53143 20.8259C-0.191514 20.5791 -0.12098 20.3146 0.408004 19.9266C2.24181 18.5689 4.26958 17.6167 6.56185 16.8938Z" fill="#673FFF"/>
<path d="M93.017 28.6393H90.0158V14.6129H95.4138C98.5818 14.6129 101.02 16.0926 101.02 19.073C101.02 20.9904 99.8948 22.4702 98.1024 22.9495C98.9986 23.4497 99.5196 24.4085 100.249 25.8674L101.604 28.6393H98.3108L97.0603 26.1383C96.4142 24.8461 95.8098 24.1584 94.2259 24.1584H93.0379L93.017 28.6393ZM95.4555 17.4265H93.0587L93.0379 21.4489H95.4138C96.8519 21.4489 97.894 20.6986 97.894 19.3856C97.894 18.0101 96.8311 17.4265 95.4555 17.4265Z" fill="black"/>
<path d="M108.743 28.9102C105.534 28.9102 103.116 26.6802 103.116 23.3872C103.116 20.4069 105.283 17.9475 108.472 17.9475C111.744 17.9475 113.641 20.3652 113.641 23.1788V24.0541H105.971C106.18 25.4297 107.243 26.3467 108.722 26.3467C109.848 26.3467 110.786 25.8048 111.265 24.8461L113.537 25.9924C112.641 27.8473 110.932 28.9102 108.743 28.9102ZM106.096 22.4077H110.702C110.577 21.3447 109.702 20.5319 108.451 20.5319C107.159 20.5319 106.305 21.3656 106.096 22.4077Z" fill="black"/>
<path d="M121.227 28.9102C118.226 28.9102 116.121 26.4509 116.121 23.4497C116.121 20.4902 118.538 18.0101 121.706 18.0101C124.937 18.0101 127.313 20.3443 127.313 23.4497V28.6393H124.499V27.4305C123.77 28.3475 122.644 28.9102 121.227 28.9102ZM121.706 26.1383C123.228 26.1383 124.353 24.9295 124.353 23.4706C124.353 22.0117 123.228 20.8029 121.706 20.8029C120.185 20.8029 119.08 22.0117 119.08 23.4706C119.08 24.9295 120.185 26.1383 121.706 26.1383Z" fill="black"/>
<path d="M131.04 13.5708H134V28.6393H131.04V13.5708Z" fill="black"/>
<path d="M38.036 28.6393L41.7458 16.5928C42.2252 15.0714 43.4757 14.3419 44.7887 14.3419C46.1226 14.3419 47.373 15.0714 47.8524 16.5928L51.5622 28.6393H48.4568L47.644 25.7632L41.9542 25.784L41.1414 28.6393H38.036ZM44.351 17.489L42.7462 23.0537H46.852L45.268 17.489C45.1847 17.1972 45.0596 17.0722 44.8095 17.0722C44.5803 17.0722 44.4344 17.1972 44.351 17.489Z" fill="black"/>
<path d="M58.952 26.0549C60.4735 26.0549 61.2446 24.7002 61.2446 23.0954V18.3227H64.2041V23.4497C64.2041 26.4718 62.4118 28.9102 58.952 28.9102C55.5132 28.9102 53.7208 26.4718 53.7208 23.4497V18.3227H56.6803V23.1163C56.6803 24.7002 57.4306 26.0549 58.952 26.0549Z" fill="black"/>
<path d="M70.3602 28.6393H67.4007V22.7203C67.4007 20.0734 68.9013 18.0518 71.965 18.0518C72.632 18.0518 73.3614 18.1768 73.8825 18.4061V21.2822C73.3823 20.9904 72.7779 20.8445 72.236 20.8445C71.0689 20.8445 70.3602 21.5948 70.3602 22.8245V28.6393Z" fill="black"/>
<path d="M80.7573 28.9102C77.7561 28.9102 75.6511 26.4509 75.6511 23.4497C75.6511 20.4902 78.0687 18.0101 81.2366 18.0101C84.4671 18.0101 86.843 20.3443 86.843 23.4497V28.6393H84.0294V27.4305C83.3 28.3475 82.1745 28.9102 80.7573 28.9102ZM81.2366 26.1383C82.7581 26.1383 83.8835 24.9295 83.8835 23.4706C83.8835 22.0117 82.7581 20.8029 81.2366 20.8029C79.7152 20.8029 78.6106 22.0117 78.6106 23.4706C78.6106 24.9295 79.7152 26.1383 81.2366 26.1383Z" fill="black"/>
</svg>
