<svg width="25" height="24" viewBox="0 0 25 24" fill="none" xmlns="http://www.w3.org/2000/svg">
<path d="M20.6667 6.75C22.1854 6.75 23.4167 5.51878 23.4167 4C23.4167 2.48122 22.1854 1.25 20.6667 1.25C19.1479 1.25 17.9167 2.48122 17.9167 4C17.9167 5.51878 19.1479 6.75 20.6667 6.75Z" fill="#673FFF"/>
<path d="M19.7067 8.15C18.1367 7.81 16.8567 6.53 16.5167 4.96C16.3867 4.35 16.3767 3.76 16.4867 3.2C16.6167 2.58 16.1567 2 15.5167 2H7.66666C4.90666 2 2.66666 4.24 2.66666 7V13.95C2.66666 16.71 4.90666 18.95 7.66666 18.95H9.16666C9.44666 18.95 9.80666 19.13 9.96666 19.35L11.4667 21.34C12.1267 22.22 13.2067 22.22 13.8667 21.34L15.3667 19.35C15.5567 19.1 15.8467 18.95 16.1667 18.95H17.6767C20.4367 18.95 22.6667 16.72 22.6667 13.96V9.15C22.6667 8.52 22.0867 8.06 21.4667 8.18C20.9067 8.28 20.3167 8.28 19.7067 8.15ZM8.66666 12C8.10666 12 7.66666 11.55 7.66666 11C7.66666 10.45 8.10666 10 8.66666 10C9.21666 10 9.66666 10.45 9.66666 11C9.66666 11.55 9.22666 12 8.66666 12ZM12.6667 12C12.1067 12 11.6667 11.55 11.6667 11C11.6667 10.45 12.1067 10 12.6667 10C13.2167 10 13.6667 10.45 13.6667 11C13.6667 11.55 13.2267 12 12.6667 12ZM16.6667 12C16.1067 12 15.6667 11.55 15.6667 11C15.6667 10.45 16.1067 10 16.6667 10C17.2167 10 17.6667 10.45 17.6667 11C17.6667 11.55 17.2267 12 16.6667 12Z" fill="#673FFF"/>
</svg>
