<svg width="25" height="24" viewBox="0 0 25 24" fill="none" xmlns="http://www.w3.org/2000/svg">
<path d="M22.3333 10V13C22.3333 17 20.3333 19 16.3333 19H15.8333C15.5233 19 15.2233 19.15 15.0333 19.4L13.5333 21.4C12.8733 22.28 11.7933 22.28 11.1333 21.4L9.63334 19.4C9.47334 19.18 9.10334 19 8.83334 19H8.33334C4.33334 19 2.33334 18 2.33334 13V8C2.33334 4 4.33334 2 8.33334 2H14.3333" stroke="#6F6F6F" stroke-width="1.5" stroke-miterlimit="10" stroke-linecap="round" stroke-linejoin="round"/>
<path d="M19.8333 7C21.2141 7 22.3333 5.88071 22.3333 4.5C22.3333 3.11929 21.2141 2 19.8333 2C18.4526 2 17.3333 3.11929 17.3333 4.5C17.3333 5.88071 18.4526 7 19.8333 7Z" stroke="#6F6F6F" stroke-width="1.5" stroke-linecap="round" stroke-linejoin="round"/>
<path d="M16.3298 11H16.3388" stroke="#6F6F6F" stroke-width="2" stroke-linecap="round" stroke-linejoin="round"/>
<path d="M12.3288 11H12.3378" stroke="#6F6F6F" stroke-width="2" stroke-linecap="round" stroke-linejoin="round"/>
<path d="M8.32785 11H8.33683" stroke="#6F6F6F" stroke-width="2" stroke-linecap="round" stroke-linejoin="round"/>
</svg>
