<svg width="14" height="16" viewBox="0 0 14 16" fill="none" xmlns="http://www.w3.org/2000/svg">
<path d="M13.3046 4.33743V11.6626C13.3046 14.5926 12.5721 15.3251 9.642 15.3251H5.24692C2.31686 15.3251 1.58435 14.5926 1.58435 11.6626V4.33743C1.58435 1.40738 2.31686 0.674866 5.24692 0.674866H9.642C12.5721 0.674866 13.3046 1.40738 13.3046 4.33743Z" stroke="#7B6F72" stroke-width="1.2" stroke-linecap="round" stroke-linejoin="round"/>
<path d="M8.90955 3.23865H5.97949" stroke="#7B6F72" stroke-width="1.2" stroke-linecap="round" stroke-linejoin="round"/>
<path d="M7.44448 13.2008C8.07154 13.2008 8.57987 12.6925 8.57987 12.0654C8.57987 11.4384 8.07154 10.9301 7.44448 10.9301C6.81742 10.9301 6.30908 11.4384 6.30908 12.0654C6.30908 12.6925 6.81742 13.2008 7.44448 13.2008Z" stroke="#7B6F72" stroke-width="1.2" stroke-linecap="round" stroke-linejoin="round"/>
</svg>
