<svg width="19" height="18" viewBox="0 0 19 18" fill="none" xmlns="http://www.w3.org/2000/svg">
<path d="M12.9166 1.5H5.41663C3.34663 1.5 1.66663 3.1725 1.66663 5.235V9.72V10.47C1.66663 12.5325 3.34663 14.205 5.41663 14.205H6.54163C6.74413 14.205 7.01413 14.34 7.14163 14.505L8.26663 15.9975C8.76163 16.6575 9.57163 16.6575 10.0666 15.9975L11.1916 14.505C11.3341 14.3175 11.5591 14.205 11.7916 14.205H12.9166C14.9866 14.205 16.6666 12.5325 16.6666 10.47V5.235C16.6666 3.1725 14.9866 1.5 12.9166 1.5ZM6.16663 9C5.74663 9 5.41663 8.6625 5.41663 8.25C5.41663 7.8375 5.75413 7.5 6.16663 7.5C6.57913 7.5 6.91663 7.8375 6.91663 8.25C6.91663 8.6625 6.58663 9 6.16663 9ZM9.16663 9C8.74663 9 8.41663 8.6625 8.41663 8.25C8.41663 7.8375 8.75413 7.5 9.16663 7.5C9.57913 7.5 9.91663 7.8375 9.91663 8.25C9.91663 8.6625 9.58663 9 9.16663 9ZM12.1666 9C11.7466 9 11.4166 8.6625 11.4166 8.25C11.4166 7.8375 11.7541 7.5 12.1666 7.5C12.5791 7.5 12.9166 7.8375 12.9166 8.25C12.9166 8.6625 12.5866 9 12.1666 9Z" fill="white"/>
</svg>
