<svg width="19" height="18" viewBox="0 0 19 18" fill="none" xmlns="http://www.w3.org/2000/svg">
<path d="M9.5645 8.1525C9.4895 8.145 9.3995 8.145 9.317 8.1525C7.532 8.0925 6.1145 6.63 6.1145 4.83C6.1145 2.9925 7.5995 1.5 9.4445 1.5C11.282 1.5 12.7745 2.9925 12.7745 4.83C12.767 6.63 11.3495 8.0925 9.5645 8.1525Z" stroke="#7B6F72" stroke-width="1.5" stroke-linecap="round" stroke-linejoin="round"/>
<path d="M5.8145 10.92C3.9995 12.135 3.9995 14.115 5.8145 15.3225C7.877 16.7025 11.2595 16.7025 13.322 15.3225C15.137 14.1075 15.137 12.1275 13.322 10.92C11.267 9.5475 7.8845 9.5475 5.8145 10.92Z" stroke="#7B6F72" stroke-width="1.5" stroke-linecap="round" stroke-linejoin="round"/>
</svg>
