<svg width="12" height="9" viewBox="0 0 12 9" fill="none" xmlns="http://www.w3.org/2000/svg">
<path fill-rule="evenodd" clip-rule="evenodd" d="M11.0248 0.295289C11.083 0.346221 11.1305 0.40821 11.1645 0.477651C11.1985 0.547093 11.2183 0.622601 11.2229 0.699786C11.2275 0.776971 11.2166 0.854293 11.191 0.927255C11.1654 1.00022 11.1256 1.06736 11.0738 1.12479L4.94066 7.93171C4.88864 7.98935 4.82563 8.03603 4.75534 8.06901C4.68504 8.10198 4.60886 8.12059 4.53128 8.12374C4.45369 8.1269 4.37626 8.11452 4.30352 8.08736C4.23078 8.06019 4.16419 8.01878 4.10766 7.96554L0.558665 4.62479C0.452194 4.52313 0.387729 4.38523 0.378008 4.23834C0.368288 4.09145 0.414019 3.94626 0.506165 3.83146C0.555903 3.76922 0.617771 3.71773 0.688013 3.68013C0.758255 3.64253 0.835405 3.6196 0.914781 3.61273C0.994156 3.60585 1.0741 3.61518 1.14976 3.64015C1.22542 3.66511 1.29522 3.70519 1.35492 3.75796L4.10825 6.23479C4.22321 6.33826 4.37456 6.39184 4.52902 6.38375C4.68348 6.37565 4.8284 6.30654 4.93191 6.19162L10.207 0.342539C10.3097 0.228694 10.4531 0.15985 10.6061 0.150898C10.7592 0.141947 10.9096 0.193608 11.0248 0.294706V0.295289Z" fill="white"/>
</svg>
