<svg width="19" height="19" viewBox="0 0 19 19" fill="none" xmlns="http://www.w3.org/2000/svg">
<path fill-rule="evenodd" clip-rule="evenodd" d="M0.833344 8.75004C0.833344 4.3778 4.37777 0.833374 8.75001 0.833374C13.1222 0.833374 16.6667 4.3778 16.6667 8.75004C16.6667 10.636 16.0072 12.3679 14.9063 13.7278L17.9672 16.7887C18.2927 17.1142 18.2927 17.6418 17.9672 17.9673C17.6418 18.2927 17.1141 18.2927 16.7887 17.9673L13.7278 14.9063C12.3679 16.0072 10.636 16.6667 8.75001 16.6667C4.37777 16.6667 0.833344 13.1223 0.833344 8.75004ZM8.75001 2.50004C5.29825 2.50004 2.50001 5.29828 2.50001 8.75004C2.50001 12.2018 5.29825 15 8.75001 15C12.2018 15 15 12.2018 15 8.75004C15 5.29828 12.2018 2.50004 8.75001 2.50004ZM5.80373 5.38706C6.55687 4.63397 7.59967 4.16671 8.75001 4.16671C9.90035 4.16671 10.9432 4.63397 11.6963 5.38708C12.0217 5.71251 12.0217 6.24015 11.6963 6.56559C11.3708 6.89102 10.8432 6.89102 10.5178 6.56559C10.0644 6.11228 9.44059 5.83337 8.75001 5.83337C8.05944 5.83337 7.43557 6.11227 6.9822 6.56561C6.65676 6.89103 6.12912 6.89102 5.80369 6.56557C5.47827 6.24012 5.47828 5.71248 5.80373 5.38706Z" fill="#673FFF"/>
</svg>
