<svg width="18" height="18" viewBox="0 0 18 18" fill="none" xmlns="http://www.w3.org/2000/svg">
<path fill-rule="evenodd" clip-rule="evenodd" d="M9.00189 2.84403C7.14789 2.84403 5.42311 3.79224 4.03261 4.95838C2.03589 6.63367 0.739251 8.72874 0.739251 8.72874C0.610679 8.93638 0.610679 9.19867 0.739251 9.40631C0.739251 9.40631 2.03589 11.5014 4.03261 13.1767C5.42311 14.3428 7.14789 15.2917 9.00189 15.2917C10.8559 15.2917 12.5807 14.3428 13.9712 13.1767C15.9679 11.5014 17.2645 9.40631 17.2645 9.40631C17.3931 9.19867 17.3931 8.93638 17.2645 8.72874C17.2645 8.72874 15.9679 6.63367 13.9712 4.95838C12.5807 3.79224 10.8559 2.84403 9.00189 2.84403ZM9.00189 4.12974C10.555 4.12974 11.9803 4.96674 13.1445 5.94388C14.5093 7.08946 15.5198 8.44717 15.946 9.06753C15.5192 9.68788 14.5093 11.0462 13.1445 12.1912C11.9803 13.1683 10.555 14.0053 9.00189 14.0053C7.44875 14.0053 6.02354 13.1683 4.85932 12.1912C3.49454 11.0456 2.48397 9.68788 2.05711 9.06753C2.48397 8.44717 3.49389 7.08881 4.85868 5.94388C6.02289 4.96674 7.44811 4.12974 9.00125 4.12974H9.00189Z" fill="#ADA4A5"/>
<path fill-rule="evenodd" clip-rule="evenodd" d="M8.94915 5.97864C7.28993 5.97864 5.9425 7.32671 5.9425 8.98592C5.9425 10.6451 7.28993 11.9932 8.94915 11.9932C10.6096 11.9932 11.9571 10.6451 11.9571 8.98592C11.9571 7.32671 10.6103 5.97864 8.94915 5.97864ZM8.94915 7.26435C9.39759 7.27661 9.82356 7.46336 10.1364 7.78488C10.4493 8.10641 10.6243 8.53731 10.6243 8.98592C10.6243 9.43454 10.4493 9.86544 10.1364 10.187C9.82356 10.5085 9.39759 10.6952 8.94915 10.7075C8.5007 10.6952 8.07474 10.5085 7.76189 10.187C7.44903 9.86544 7.27398 9.43454 7.27398 8.98592C7.27398 8.53731 7.44903 8.10641 7.76189 7.78488C8.07474 7.46336 8.5007 7.27661 8.94915 7.26435Z" fill="#ADA4A5"/>
</svg>
