<svg width="20" height="20" viewBox="0 0 20 20" fill="none" xmlns="http://www.w3.org/2000/svg">
<path d="M8.9453 0.282835C7.71718 0.432835 6.66717 0.742208 5.61718 1.26721C2.76249 2.6969 0.784363 5.44377 0.324988 8.62658C0.22655 9.32033 0.22655 10.6797 0.324988 11.3735C0.728113 14.1672 2.30311 16.6422 4.65624 18.1844C5.7203 18.8781 6.95311 19.375 8.24217 19.6141C8.89374 19.7406 10.4265 19.7875 11.1062 19.7078C12.9578 19.4922 14.7203 18.7563 16.1406 17.6078C16.5625 17.2656 17.3078 16.5156 17.6453 16.0938C18.7047 14.7719 19.4265 13.0844 19.675 11.3735C19.7734 10.6797 19.7734 9.32033 19.675 8.62658C19.0422 4.2344 15.5781 0.845335 11.1719 0.296896C10.8062 0.254709 9.26874 0.240646 8.9453 0.282835ZM10.7172 1.81565C11.5656 1.86252 12.7703 2.19533 13.6281 2.62658C15.6062 3.61565 17.1062 5.34533 17.8 7.4219C18.1234 8.38752 18.175 8.76721 18.175 10C18.175 10.9703 18.1656 11.1578 18.0719 11.5938C17.65 13.5203 16.675 15.1422 15.1797 16.3703C13.0469 18.1328 10.0656 18.6813 7.42186 17.8C5.64999 17.2094 4.11718 16.0235 3.09061 14.4438C2.5703 13.6422 2.15311 12.6156 1.92811 11.5938C1.77343 10.8672 1.77343 9.13283 1.92811 8.40627C2.41561 6.17033 3.68593 4.3094 5.55624 3.09064C6.36718 2.56096 7.42186 2.1344 8.40624 1.93752C8.87967 1.83908 9.82186 1.75471 10.1172 1.78283C10.1969 1.78752 10.464 1.80627 10.7172 1.81565Z" fill="#B7B7B7"/>
<path d="M6.13281 7.08906C5.725 7.27656 5.5 7.65156 5.5 8.13437C5.50469 8.8 5.95469 9.25 6.625 9.25C7.3 9.25 7.75 8.8 7.75 8.125C7.75 7.6375 7.50156 7.24844 7.08438 7.075C6.84063 6.97187 6.36719 6.98125 6.13281 7.08906Z" fill="#B7B7B7"/>
<path d="M12.8828 7.08906C12.475 7.27656 12.25 7.65156 12.25 8.13437C12.2547 8.8 12.7047 9.25 13.375 9.25C14.05 9.25 14.5 8.8 14.5 8.125C14.5 7.6375 14.2516 7.24844 13.8344 7.075C13.5906 6.97187 13.1172 6.98125 12.8828 7.08906Z" fill="#B7B7B7"/>
<path d="M5.7578 11.5561C5.4203 11.7389 5.25155 12.1326 5.36405 12.4701C5.48124 12.8357 6.03437 13.5482 6.52655 13.9701C7.14999 14.5045 7.91405 14.9029 8.74843 15.1232C9.07655 15.2076 9.25937 15.2217 9.99999 15.2217C10.7453 15.2217 10.9234 15.2076 11.2516 15.1232C12.6016 14.7623 13.6422 14.0357 14.4016 12.9107C14.6453 12.5545 14.7109 12.3248 14.6453 12.0764C14.5422 11.6967 14.2891 11.4998 13.8906 11.4998C13.5625 11.4998 13.4125 11.5936 13.1781 11.9357C12.6062 12.7842 11.9547 13.2811 11.0312 13.5717C10.7312 13.6654 10.5812 13.6795 9.99999 13.6795C9.41874 13.6795 9.26874 13.6654 8.96874 13.5717C8.0453 13.2811 7.39374 12.7842 6.82187 11.9357C6.70937 11.7717 6.55937 11.6076 6.48437 11.5701C6.32499 11.4904 5.89374 11.4811 5.7578 11.5561Z" fill="#B7B7B7"/>
</svg>
