<svg width="18" height="19" viewBox="0 0 18 19" fill="none" xmlns="http://www.w3.org/2000/svg">
<path d="M12.75 3.06348H5.25C3 3.06348 1.5 4.18848 1.5 6.81348V12.0635C1.5 14.6885 3 15.8135 5.25 15.8135H12.75C15 15.8135 16.5 14.6885 16.5 12.0635V6.81348C16.5 4.18848 15 3.06348 12.75 3.06348ZM13.1025 7.63098L10.755 9.50598C10.26 9.90348 9.63 10.0985 9 10.0985C8.37 10.0985 7.7325 9.90348 7.245 9.50598L4.8975 7.63098C4.6575 7.43598 4.62 7.07598 4.8075 6.83598C5.0025 6.59598 5.355 6.55098 5.595 6.74598L7.9425 8.62098C8.5125 9.07848 9.48 9.07848 10.05 8.62098L12.3975 6.74598C12.6375 6.55098 12.9975 6.58848 13.185 6.83598C13.38 7.07598 13.3425 7.43598 13.1025 7.63098Z" fill="white"/>
</svg>
