<svg width="156" height="43" viewBox="0 0 156 43" fill="none" xmlns="http://www.w3.org/2000/svg">
<path d="M12.3616 27.0246C14.6776 24.9956 17.0141 23.069 19.5351 21.3269C26.2986 16.6539 33.677 13.5386 41.8752 12.6163C42.4901 12.5548 43.3304 12.1654 43.6993 12.7187C44.1092 13.3541 43.2894 13.846 42.9205 14.3174C39.9691 18.2935 36.9563 22.2082 34.3944 26.4508C33.882 27.3116 33.759 28.0494 34.0459 29.0127C35.1732 32.7224 36.0955 36.5141 36.8128 40.3262C36.9153 40.9001 36.9973 41.474 36.9973 42.0479C36.9973 42.9702 36.6489 43.1546 35.87 42.6832C34.8453 42.0684 33.8615 41.392 32.8572 40.7567C28.9835 38.2562 25.0894 35.8172 21.0312 33.6447C20.3344 33.2758 20.4984 32.9888 20.8058 32.4969C23.5932 28.3159 27.1799 24.8726 30.9921 21.6343C31.8529 20.917 32.7342 20.2201 33.5745 19.4618C31.1151 20.548 28.8401 21.9212 26.6265 23.4174C20.068 27.8445 14.5547 33.3988 9.38978 39.3425C8.48797 40.3672 7.60666 41.4125 6.70486 42.4373C6.47941 42.6832 6.29495 43.1546 5.82355 42.9497C5.43414 42.7857 5.55711 42.3553 5.55711 42.0274C5.53661 39.6294 5.98752 37.2724 6.41792 34.9359C8.32401 24.6471 11.8902 15.0347 17.8749 6.40611C19.2686 4.41804 20.7648 2.51196 22.5684 0.872311C23.9826 -0.418909 24.372 -0.316434 25.0689 1.44618C26.0117 3.86466 26.5036 6.40611 27.1184 8.92706C27.3439 9.84936 27.4669 10.8127 27.7538 11.7145C27.9383 12.3498 27.7128 12.5958 27.2209 12.9032C21.6461 16.244 16.9526 20.548 13.161 25.8359C12.874 26.2663 12.6281 26.6557 12.3616 27.0246Z" fill="white"/>
<path d="M7.62718 19.0519C7.0738 21.1425 6.54092 23.069 6.06952 25.0161C5.92605 25.59 5.7211 25.4875 5.31119 25.344C3.75353 24.7497 2.19586 24.1553 0.617701 23.6224C-0.222616 23.3355 -0.140631 23.0281 0.474236 22.5771C2.60577 20.999 4.96276 19.8922 7.62718 19.0519Z" fill="white"/>
<path d="M107.443 32.7043H103.955V16.4006H110.229C113.912 16.4006 116.746 18.1206 116.746 21.5848C116.746 23.8136 115.438 25.5336 113.354 26.0907C114.396 26.6722 115.002 27.7865 115.85 29.4823L117.424 32.7043H113.597L112.143 29.7972C111.392 28.2953 110.69 27.4958 108.849 27.4958H107.468L107.443 32.7043ZM110.278 19.671H107.492L107.468 24.3465H110.229C111.901 24.3465 113.112 23.4744 113.112 21.9482C113.112 20.3493 111.877 19.671 110.278 19.671Z" fill="white"/>
<path d="M125.723 33.0192C121.992 33.0192 119.182 30.4271 119.182 26.5995C119.182 23.1353 121.701 20.2767 125.408 20.2767C129.211 20.2767 131.416 23.0868 131.416 26.3572V27.3747H122.501C122.743 28.9736 123.979 30.0395 125.699 30.0395C127.007 30.0395 128.097 29.4096 128.654 28.2953L131.295 29.6277C130.253 31.7837 128.266 33.0192 125.723 33.0192ZM122.646 25.4609H128C127.855 24.2254 126.837 23.2806 125.384 23.2806C123.882 23.2806 122.888 24.2496 122.646 25.4609Z" fill="white"/>
<path d="M140.233 33.0192C136.745 33.0192 134.298 30.1606 134.298 26.6722C134.298 23.2322 137.108 20.3493 140.791 20.3493C144.546 20.3493 147.307 23.0626 147.307 26.6722V32.7043H144.037V31.2992C143.189 32.3651 141.881 33.0192 140.233 33.0192ZM140.791 29.7972C142.559 29.7972 143.867 28.3922 143.867 26.6964C143.867 25.0006 142.559 23.5955 140.791 23.5955C139.022 23.5955 137.738 25.0006 137.738 26.6964C137.738 28.3922 139.022 29.7972 140.791 29.7972Z" fill="white"/>
<path d="M151.64 15.1893H155.08V32.7043H151.64V15.1893Z" fill="white"/>
<path d="M44.2113 32.7043L48.5234 18.702C49.0806 16.9336 50.5341 16.0857 52.0603 16.0857C53.6107 16.0857 55.0643 16.9336 55.6215 18.702L59.9336 32.7043H56.324L55.3792 29.3612L48.7657 29.3854L47.8209 32.7043H44.2113ZM51.5516 19.7437L49.6862 26.2119H54.4586L52.6175 19.7437C52.5206 19.4045 52.3753 19.2592 52.0845 19.2592C51.8181 19.2592 51.6485 19.4045 51.5516 19.7437Z" fill="white"/>
<path d="M68.5232 29.7003C70.2916 29.7003 71.188 28.1257 71.188 26.2603V20.7127H74.628V26.6722C74.628 30.1848 72.5446 33.0192 68.5232 33.0192C64.526 33.0192 62.4426 30.1848 62.4426 26.6722V20.7127H65.8826V26.2846C65.8826 28.1257 66.7547 29.7003 68.5232 29.7003Z" fill="white"/>
<path d="M81.7835 32.7043H78.3435V25.8243C78.3435 22.7476 80.0877 20.3978 83.6489 20.3978C84.4241 20.3978 85.272 20.5431 85.8776 20.8096V24.1527C85.2962 23.8136 84.5937 23.644 83.9638 23.644C82.6072 23.644 81.7835 24.5161 81.7835 25.9454V32.7043Z" fill="white"/>
<path d="M93.8686 33.0192C90.3801 33.0192 87.9334 30.1606 87.9334 26.6722C87.9334 23.2322 90.7435 20.3493 94.4258 20.3493C98.1807 20.3493 100.942 23.0626 100.942 26.6722V32.7043H97.672V31.2992C96.8241 32.3651 95.5159 33.0192 93.8686 33.0192ZM94.4258 29.7972C96.1942 29.7972 97.5024 28.3922 97.5024 26.6964C97.5024 25.0006 96.1942 23.5955 94.4258 23.5955C92.6573 23.5955 91.3734 25.0006 91.3734 26.6964C91.3734 28.3922 92.6573 29.7972 94.4258 29.7972Z" fill="white"/>
</svg>
