<svg width="25" height="24" viewBox="0 0 25 24" fill="none" xmlns="http://www.w3.org/2000/svg">
<path d="M17.6233 4.13999L17.5533 7.92997C17.5433 8.44997 17.8734 9.13999 18.2934 9.44999L20.7734 11.33C22.3634 12.53 22.1033 14 20.2033 14.6L16.9734 15.61C16.4334 15.78 15.8634 16.37 15.7234 16.92L14.9533 19.86C14.3433 22.18 12.8233 22.41 11.5633 20.37L9.80332 17.52C9.48332 17 8.72333 16.61 8.12333 16.64L4.78336 16.81C2.39336 16.93 1.71335 15.55 3.27335 13.73L5.25333 11.43C5.62333 11 5.79333 10.2 5.62333 9.65998L4.61338 6.42997C4.02338 4.52997 5.08336 3.47999 6.97336 4.09999L9.92338 5.06999C10.4234 5.22999 11.1734 5.11998 11.5934 4.80998L14.6734 2.58998C16.3334 1.38998 17.6633 2.08999 17.6233 4.13999Z" stroke="#6F6F6F" stroke-width="1.5" stroke-linecap="round" stroke-linejoin="round"/>
<path d="M22.2433 21.9997L19.2133 18.9697" stroke="#6F6F6F" stroke-width="1.5" stroke-linecap="round" stroke-linejoin="round"/>
</svg>
