<svg width="18" height="19" viewBox="0 0 18 19" fill="none" xmlns="http://www.w3.org/2000/svg">
<path d="M9 1.93848C7.035 1.93848 5.4375 3.53598 5.4375 5.50098C5.4375 7.42848 6.945 8.98848 8.91 9.05598C8.97 9.04848 9.03 9.04848 9.075 9.05598C9.09 9.05598 9.0975 9.05598 9.1125 9.05598C9.12 9.05598 9.12 9.05598 9.1275 9.05598C11.0475 8.98848 12.555 7.42848 12.5625 5.50098C12.5625 3.53598 10.965 1.93848 9 1.93848Z" fill="white"/>
<path d="M12.81 11.051C10.7175 9.65601 7.30497 9.65601 5.19747 11.051C4.24497 11.6885 3.71997 12.551 3.71997 13.4735C3.71997 14.396 4.24497 15.251 5.18997 15.881C6.23997 16.586 7.61997 16.9385 8.99997 16.9385C10.38 16.9385 11.76 16.586 12.81 15.881C13.755 15.2435 14.28 14.3885 14.28 13.4585C14.2725 12.536 13.755 11.681 12.81 11.051Z" fill="white"/>
</svg>
